<svg width="44" height="32" viewBox="0 0 44 32" fill="none" xmlns="http://www.w3.org/2000/svg">
<path d="M42.8904 10.9524L37.84 5.92234C37.1131 5.20103 36.1374 4.80238 35.1234 4.80238H28.0835V3.79631C28.0835 1.70839 26.3618 0 24.2574 0H3.82609C1.70263 0 0 1.70839 0 3.79631V23.1006C0 25.1885 1.70263 26.8969 3.82609 26.8969H8.28386C8.28829 29.5567 10.4618 31.7117 13.1434 31.7117C15.825 31.7117 17.9985 29.5567 18.003 26.8969H29.5207C29.5251 29.5567 31.6987 31.7117 34.3803 31.7117C37.0618 31.7117 39.2353 29.5567 39.2397 26.8969H41.1304C42.7183 26.8969 44 25.6062 44 24.0497V13.6477C44 12.6418 43.5983 11.6737 42.8904 10.9524ZM13.1434 28.8645C12.0459 28.8645 11.1528 27.9784 11.1528 26.8894C11.1528 25.8003 12.0458 24.9143 13.1434 24.9143C14.241 24.9143 15.134 25.8003 15.134 26.8894C15.134 27.9784 14.241 28.8645 13.1434 28.8645ZM34.3802 28.8645C33.2827 28.8645 32.3897 27.9784 32.3897 26.8894C32.3897 25.8003 33.2827 24.9143 34.3802 24.9143C35.4778 24.9143 36.3708 25.8003 36.3708 26.8894C36.3708 27.9784 35.4778 28.8645 34.3802 28.8645ZM40.1739 15.8558H30.2835V8.59869H34.5254C34.9082 8.59869 35.275 8.75028 35.5447 9.01981L39.7571 13.2311C40.0241 13.498 40.1739 13.8588 40.1739 14.2348L40.1739 15.8558Z" fill="#1D780E"/>
</svg>
