<svg width="40" height="40" viewBox="0 0 40 40" fill="none" xmlns="http://www.w3.org/2000/svg">
<path d="M31.25 0C26.425 0 22.5 3.925 22.5 8.75C22.5 13.24 29.52 21.1925 30.32 22.085C30.5575 22.3475 30.895 22.5 31.25 22.5C31.605 22.5 31.9425 22.3475 32.18 22.085C32.98 21.1925 40 13.24 40 8.75C40 3.925 36.075 0 31.25 0ZM31.25 12.5C29.18 12.5 27.5 10.82 27.5 8.75C27.5 6.68 29.18 5 31.25 5C33.32 5 35 6.68 35 8.75C35 10.82 33.32 12.5 31.25 12.5Z" fill="#1D780E"/>
<path d="M0.785 14.685C0.3125 14.875 0 15.335 0 15.8475V38.75C0 39.165 0.2075 39.5525 0.55 39.785C0.76 39.925 1.0025 40 1.25 40C1.4075 40 1.565 39.97 1.715 39.91L12.5 35.595V10L0.785 14.685Z" fill="#1D780E"/>
<path d="M34.04 23.755C33.33 24.545 32.3125 25 31.25 25C30.1875 25 29.17 24.545 28.46 23.755C28.205 23.4725 27.8775 23.1 27.5 22.6575V40L39.215 35.315C39.69 35.1275 40 34.665 40 34.155V15.7775C37.9525 19.245 35.215 22.445 34.04 23.755Z" fill="#1D780E"/>
<path d="M20.7875 12.315L15 10V35.595L25 39.595V19.52C23.4025 17.3675 21.735 14.775 20.7875 12.315Z" fill="#1D780E"/>
</svg>
