<svg width="43" height="32" viewBox="0 0 43 32" fill="none" xmlns="http://www.w3.org/2000/svg">
<path d="M28.1723 0H22.9826C22.1641 0 21.4998 0.651636 21.4998 1.45455V2.90909H1.4824C1.05981 2.90909 0.655011 3.08655 0.374767 3.39782C0.0930403 3.70764 -0.0389264 4.12073 0.0100051 4.53382L1.56988 17.5389C1.61288 17.9055 1.93019 18.1818 2.30534 18.1818H23.724C24.1332 18.1818 24.4654 17.856 24.4654 17.4545V2.90909H28.1723C28.9923 2.90909 29.6551 2.25891 29.6551 1.45455C29.6551 0.650182 28.9923 0 28.1723 0ZM7.41348 12C7.41348 12.6022 6.91527 13.0909 6.3014 13.0909C5.68754 13.0909 5.18933 12.6022 5.18933 12V8.36364C5.18933 7.76145 5.68754 7.27273 6.3014 7.27273C6.91527 7.27273 7.41348 7.76145 7.41348 8.36364V12ZM13.3446 12C13.3446 12.6022 12.8464 13.0909 12.2325 13.0909C11.6186 13.0909 11.1204 12.6022 11.1204 12V8.36364C11.1204 7.76145 11.6186 7.27273 12.2325 7.27273C12.8464 7.27273 13.3446 7.76145 13.3446 8.36364V12ZM19.2757 12C19.2757 12.6022 18.7774 13.0909 18.1636 13.0909C17.5497 13.0909 17.0515 12.6022 17.0515 12V8.36364C17.0515 7.76145 17.5497 7.27273 18.1636 7.27273C18.7774 7.27273 19.2757 7.76145 19.2757 8.36364V12Z" fill="#1D780E"/>
<path d="M40.3458 6.88C40.1531 6.25454 39.5748 5.81818 38.9224 5.81818H28.1723C27.3538 5.81818 26.6895 6.46982 26.6895 7.27273V18.9091C26.6895 19.712 26.0252 20.3636 25.2067 20.3636H2.96517C2.14668 20.3636 1.4824 21.0153 1.4824 21.8182V24.7273C1.4824 25.5302 2.14668 26.1818 2.96517 26.1818H4.44794C4.44794 29.3905 7.10803 32 10.379 32C13.65 32 16.3101 29.3905 16.3101 26.1818H26.6895C26.6895 29.3905 29.3496 32 32.6206 32C35.8916 32 38.5517 29.3905 38.5517 26.1818H41.5172C42.3328 26.1818 43 25.5273 43 24.7273V16L40.3458 6.88ZM10.379 29.0909C8.74353 29.0909 7.41348 27.7862 7.41348 26.1818C7.41348 24.5775 8.74353 23.2727 10.379 23.2727C12.0145 23.2727 13.3446 24.5775 13.3446 26.1818C13.3446 27.7862 12.0145 29.0909 10.379 29.0909ZM32.6206 29.0909C30.9851 29.0909 29.6551 27.7862 29.6551 26.1818C29.6551 24.5775 30.9851 23.2727 32.6206 23.2727C34.2561 23.2727 35.5861 24.5775 35.5861 26.1818C35.5861 27.7862 34.2561 29.0909 32.6206 29.0909ZM32.6206 16V8H38.3589L40.6869 16H32.6206Z" fill="#1D780E"/>
</svg>
