<svg width="36" height="40" viewBox="0 0 36 40" fill="none" xmlns="http://www.w3.org/2000/svg">
<path d="M35.5108 5.59821C35.4384 5.08247 35.0644 4.65824 34.5587 4.51881L18.3531 0.0478435C18.1221 -0.0159478 17.8781 -0.0159478 17.6469 0.0478435L1.44128 4.51881C0.935644 4.65824 0.561601 5.0823 0.489217 5.59821C0.395224 6.26871 -1.74907 22.1113 3.75089 29.9924C9.24434 37.8642 17.3484 39.8815 17.6906 39.9636C17.7923 39.988 17.896 40 18 40C18.104 40 18.2077 39.9878 18.3094 39.9636C18.6518 39.8815 26.7558 37.8642 32.2491 29.9924C37.7491 22.1114 35.6048 6.26889 35.5108 5.59821ZM28.4505 14.8472L17.3967 25.8132C17.1395 26.0684 16.8022 26.1962 16.465 26.1962C16.1279 26.1962 15.7905 26.0686 15.5333 25.8132L8.69883 19.0331C8.45163 18.788 8.31284 18.4555 8.31284 18.1088C8.31284 17.7621 8.45181 17.4296 8.69883 17.1845L10.0559 15.8383C10.5704 15.3279 11.4048 15.3278 11.9192 15.8383L16.465 20.3479L25.2301 11.6523C25.4772 11.407 25.8124 11.2694 26.1618 11.2694C26.5113 11.2694 26.8465 11.407 27.0935 11.6523L28.4505 12.9985C28.9651 13.509 28.9651 14.3367 28.4505 14.8472Z" fill="#1D780E"/>
</svg>
