<svg width="222" height="56" viewBox="0 0 222 56" fill="none" xmlns="http://www.w3.org/2000/svg">
<path d="M93.53 24.9268V29.7352H70.9652C70.1814 29.7352 69.8046 30.0668 69.8046 30.715V45.6225H64.7249V29.9312C64.7249 26.5849 66.805 24.9117 70.9652 24.9117H93.53V24.9268Z" fill="#1D780E"/>
<path d="M100.675 38.1461V45.6225H95.5951V24.9117H117.421C121.582 24.9117 123.662 26.6 123.662 29.9613V33.0966C123.662 36.4579 121.582 38.1461 117.436 38.1461H100.675ZM100.675 29.7352V33.3377H117.421C118.19 33.3377 118.582 33.0815 118.582 32.5841V30.4889C118.582 29.9915 118.19 29.7352 117.421 29.7352H100.675Z" fill="#1D780E"/>
<path d="M135.901 45.6376H128.892L138.494 36.4429L125.968 24.9269H132.977L141.855 33.594L150.251 24.9269H157.26L135.901 45.6376Z" fill="#1D780E"/>
<path d="M185.312 37.1664H165.174V45.6376H160.109V24.9269H165.174V32.358H185.312V24.9269H190.391V45.6376H185.312V37.1664Z" fill="#1D780E"/>
<path d="M192.954 24.9269H222V29.7353H210.107V45.6376H205.043V29.7353H192.954V24.9269Z" fill="#1D780E"/>
<path d="M18.706 13.3204C14.7869 14.0892 11.2899 16.0185 8.57672 18.7317C5.66757 21.6409 3.66282 25.4544 3.01467 29.7202C1.94446 30.3081 0.94962 30.9562 0 31.6496C0.27132 25.8313 2.72827 20.6008 6.58704 16.7421C9.84288 13.4862 14.0936 11.2101 18.8567 10.4414C18.7512 10.8484 18.6909 11.2554 18.6608 11.6473C18.6156 12.2351 18.6457 12.7928 18.7211 13.3204H18.706Z" fill="#48161E"/>
<path d="M31.5485 12.0241C32.1966 12.3105 32.8297 12.612 33.4477 12.9587C33.101 12.9737 32.7845 13.0189 32.4679 13.0792C32.0157 13.1697 31.5786 13.2903 31.1867 13.441C31.3525 12.9737 31.4731 12.5065 31.5635 12.0241H31.5485ZM43.3358 23.9773C43.4112 24.1581 43.4865 24.3541 43.5619 24.55H43.5016C42.6424 24.8515 41.7682 25.153 40.8789 25.4092C40.8035 25.2283 40.7281 25.0475 40.6528 24.8666C41.5572 24.5802 42.4616 24.2787 43.3358 23.9923V23.9773ZM44.406 27.218C44.8431 28.9816 45.0843 30.8055 45.0843 32.7047C45.0843 38.0859 43.2001 43.045 40.0347 46.9189C39.7785 45.7582 39.4469 44.6127 39.055 43.5123C41.0899 40.4072 42.2807 36.6991 42.2807 32.7047C42.2807 31.1069 42.0847 29.5695 41.738 28.0772C42.6424 27.821 43.5318 27.5195 44.406 27.2331H44.4211L44.406 27.218Z" fill="#1D780E"/>
<path d="M26.4839 19.9225C26.1221 20.4199 25.8056 20.9173 25.5192 21.46C24.4942 23.3291 23.9063 25.4243 23.8008 27.5948C22.8813 27.2632 21.9619 26.9919 21.0424 26.811C21.2383 24.4596 21.9317 22.1835 23.0622 20.1335C24.871 16.8325 27.7802 14.1042 31.5334 12.5667L31.8047 13.245C28.8052 14.074 26.9662 16.4707 26.3783 17.8273C26.3331 17.9328 26.303 18.0233 26.2728 18.1137C26.2276 18.2644 26.1975 18.4001 26.1824 18.5056C26.1824 18.596 26.1824 18.7016 26.1824 18.8372C26.2125 19.1236 26.3181 19.5155 26.4839 19.9526V19.9225Z" fill="#1D780E"/>
<path d="M20.9821 11.9487C21.0574 11.0443 21.2986 10.0947 21.781 9.09984C22.203 8.25573 22.7909 7.38148 23.5898 6.53737C24.4188 5.66312 25.489 4.69843 26.9059 3.79403C28.3077 2.9047 30.0713 2.07567 32.3172 1.45766L34.729 0.794434L34.0507 3.1308C33.8547 4.17086 33.9301 5.49731 34.0205 6.89913C34.1411 8.87374 34.2617 10.9689 33.7492 12.9435C33.297 12.9435 32.8749 13.0038 32.468 13.0792C31.7143 13.2149 31.0209 13.456 30.4029 13.7726C31.5033 11.8733 31.3525 9.37116 31.2319 7.04987C31.1867 6.28113 31.1415 5.52746 31.1415 4.80394C30.1014 5.21092 29.197 5.67819 28.4283 6.17561C27.2375 6.92928 26.3331 7.74324 25.6397 8.48183C25.0368 9.12999 24.5997 9.74799 24.3133 10.3509C23.9967 10.984 23.846 11.602 23.8008 12.1899C23.7405 13.0491 23.9063 13.8178 24.1776 14.481C24.5695 15.4005 25.1273 16.0637 25.5342 16.3953L25.6096 16.4556C25.9864 16.5008 26.6798 16.4255 27.4787 16.124C26.9662 16.742 26.6044 17.345 26.3934 17.8273C26.3482 17.9328 26.318 18.0232 26.2879 18.1137C26.2427 18.2644 26.2125 18.4001 26.1974 18.5056C26.1974 18.596 26.1974 18.7015 26.1974 18.8372C26.1974 18.9578 26.2427 19.0935 26.2728 19.2442C25.8206 19.2894 25.4438 19.2743 25.1423 19.2442C25.0368 19.2291 24.9614 19.214 24.9011 19.199C24.8258 19.1839 24.7353 19.1538 24.6298 19.1236C24.5545 19.0935 24.4489 19.0482 24.3284 18.9879C24.3284 18.9879 24.1927 18.9126 24.0721 18.8372H24.057C24.057 18.8372 23.9515 18.7618 23.9063 18.7166L23.7857 18.6262C23.1074 18.0685 22.1729 16.9832 21.585 15.5814C21.1479 14.5564 20.8916 13.3354 20.9972 11.9939L20.9821 11.9487Z" fill="#1D780E"/>
<path d="M32.1966 11.7076C33.312 11.4965 34.5631 11.4815 35.9047 11.7377C37.0804 11.9638 38.3315 12.4009 39.6429 13.1094C40.9995 13.848 42.5671 14.8277 44.1648 16.2899C45.7626 17.7369 47.3905 19.6512 48.8979 22.2287L50.0736 24.2335L47.7824 24.3239C46.3354 24.4295 44.6321 25.0022 42.8384 25.6052C38.8289 26.9467 34.4425 28.4088 30.1316 26.1177H30.1165C28.6544 25.3037 27.5239 24.2184 26.6949 23.1181C25.5041 21.5655 24.9011 19.9074 24.7956 18.9729C24.7956 18.8674 24.7805 18.777 24.7655 18.6865C24.7655 18.5509 24.7655 18.4453 24.7655 18.37C24.7655 18.2494 24.7956 18.1288 24.8258 17.9931C24.8559 17.8876 24.8861 17.7821 24.9162 17.6615C24.9313 17.5711 24.9614 17.5108 24.9916 17.4354L25.0669 17.2395C25.5041 16.2296 26.4989 14.7674 28.0213 13.5767C29.1217 12.7175 30.5235 11.994 32.1815 11.6774L32.1966 11.7076ZM35.3771 14.4811C34.3973 14.2851 33.508 14.3002 32.7091 14.4509C31.5334 14.677 30.5536 15.1895 29.7547 15.8075C28.6544 16.6667 27.9459 17.6766 27.6595 18.3549C27.6595 18.37 27.6596 18.3549 27.6143 18.4755L27.5842 18.5508L27.5691 18.6111V18.6262C27.6445 19.2292 28.0665 20.3144 28.9106 21.4299C29.5286 22.2438 30.3728 23.0578 31.458 23.6456C34.7139 25.364 38.4973 24.0978 41.9491 22.9372C43.1248 22.5453 44.2553 22.1684 45.3556 21.8971C44.3457 20.4501 43.2906 19.2894 42.2505 18.3549C40.8487 17.0737 39.477 16.1994 38.2862 15.5663C37.2311 14.9936 36.2513 14.6619 35.3469 14.4811H35.3771Z" fill="#1D780E"/>
<path d="M37.3517 49.8732C35.3469 51.6519 33.0106 53.0838 30.4632 54.0485C27.9912 54.9831 25.3232 55.4956 22.5497 55.4956C16.8067 55.4956 11.5612 53.3099 7.59694 49.7375C3.60251 46.12 0.919453 41.0855 0.346667 35.433L0.271301 34.7245L0.813942 34.2422C2.81869 32.4635 5.15506 31.0315 7.70245 30.0669C10.1745 29.1323 12.8274 28.6198 15.616 28.6198C21.3589 28.6198 26.6044 30.8054 30.5687 34.3778C34.5631 37.9803 37.2462 43.0299 37.819 48.6824L37.8943 49.3909L37.3517 49.8732ZM29.4683 51.4258C31.4731 50.6721 33.312 49.5868 34.94 48.2453C34.2918 43.5876 32.0157 39.4575 28.6845 36.4429C25.2327 33.3227 20.6354 31.4235 15.6009 31.4235C13.159 31.4235 10.8226 31.8757 8.66715 32.6896C6.66239 33.4433 4.82344 34.5286 3.19553 35.8701C3.84368 40.5277 6.11975 44.6578 9.45096 47.6725C12.9028 50.7927 17.5001 52.6919 22.5346 52.6919C24.9765 52.6919 27.3129 52.2397 29.4683 51.4258Z" fill="#48161E"/>
<path d="M0.874283 36.3223C2.38162 35.5083 4.00954 34.8753 5.71283 34.4532C7.37089 34.0312 9.08925 33.8201 10.8679 33.8201C16.0983 33.8201 20.8917 35.7194 24.5696 38.8848C28.3077 42.0803 30.9154 46.5722 31.7143 51.6669L28.9559 52.089C28.2625 47.6876 26.0015 43.7836 22.7608 41.0101C19.5652 38.2818 15.42 36.6238 10.8679 36.6238C9.31535 36.6238 7.82309 36.8197 6.39112 37.1664C4.91393 37.5432 3.51212 38.0859 2.20074 38.7943L0.874283 36.3223Z" fill="#48161E"/>
<path d="M1.86908 38.9451C2.41172 38.8396 2.96943 38.7642 3.54222 38.719C4.13008 38.6587 4.70287 38.6436 5.23044 38.6436C9.67707 38.6436 13.7619 40.2112 16.9726 42.8189C20.2284 45.4718 22.5798 49.2251 23.439 53.5059L20.6957 54.0636C19.9571 50.431 17.9674 47.2505 15.209 44.9895C12.4958 42.7737 9.01384 41.4473 5.23044 41.4473C4.70287 41.4473 4.22052 41.4623 3.78339 41.5076C3.31612 41.5528 2.83378 41.6131 2.3665 41.7035L1.86908 38.9451Z" fill="#48161E"/>
<path d="M25.5191 17.6615C29.3025 16.7872 33.2065 16.7571 36.8091 17.4203C40.5472 18.1137 43.9689 19.5456 46.5916 21.5805L44.8884 23.7963C42.6123 22.0327 39.6127 20.7817 36.3116 20.1787C33.0859 19.5909 29.5739 19.621 26.1522 20.4048L25.5342 17.6766L25.5191 17.6615Z" fill="#1D780E"/>
</svg>
