<svg width="229" height="58" viewBox="0 0 229 58" fill="none" xmlns="http://www.w3.org/2000/svg">
<path d="M96.4791 25.8256V30.7856H73.2029C72.3943 30.7856 72.0056 31.1277 72.0056 31.7963V47.1739H66.7657V30.9877C66.7657 27.536 68.9115 25.8101 73.2029 25.8101H96.4791V25.8256Z" fill="#FEFEFE"/>
<path d="M103.849 39.4618V47.1739H98.6094V25.8101H121.124C125.415 25.8101 127.561 27.5515 127.561 31.0189V34.253C127.561 37.7203 125.415 39.4618 121.139 39.4618H103.849ZM103.849 30.7856V34.5018H121.124C121.917 34.5018 122.321 34.2374 122.321 33.7243V31.5631C122.321 31.05 121.917 30.7856 121.124 30.7856H103.849Z" fill="#FEFEFE"/>
<path d="M140.186 47.1734H132.956L142.861 37.7043L129.94 25.8252H137.17L146.328 34.7656L154.989 25.8252H162.219L140.186 47.1734Z" fill="#FEFEFE"/>
<path d="M191.155 38.4507H170.382V47.1734H165.157V25.8252H170.382V33.4751H191.155V25.8252H196.395V47.1734H191.155V38.4507Z" fill="#FEFEFE"/>
<path d="M199.038 25.8252H229V30.7852H216.732V47.1734H211.508V30.7852H199.038V25.8252Z" fill="#FEFEFE"/>
<path d="M19.2958 13.8526C15.2532 14.6456 11.6459 16.6358 8.84716 19.4345C5.84628 22.4354 3.77831 26.3692 3.10972 30.7695C2.00577 31.3759 0.979563 32.0445 0 32.7597C0.279875 26.7579 2.8143 21.3626 6.79474 17.3821C10.1532 14.0236 14.538 11.6758 19.4513 10.8828C19.3425 11.3026 19.2803 11.7224 19.2492 12.1267C19.2025 12.7331 19.2336 13.3084 19.3114 13.8526H19.2958Z" fill="#FEFEFE"/>
<path d="M32.5432 12.5151C33.2118 12.8106 33.8649 13.1215 34.5024 13.4791C34.1447 13.4947 33.8182 13.5413 33.4917 13.6035C33.0252 13.6968 32.5743 13.8212 32.1701 13.9767C32.3411 13.4947 32.4655 13.0127 32.5588 12.5151H32.5432ZM44.7023 24.8452C44.78 25.0318 44.8577 25.2339 44.9355 25.436H44.8733C43.987 25.747 43.0852 26.058 42.1678 26.3223C42.0901 26.1357 42.0123 25.9491 41.9346 25.7625C42.8675 25.4671 43.8004 25.1562 44.7023 24.8607V24.8452ZM45.8062 28.1881C46.2571 29.9918 46.5059 31.8887 46.5059 33.8478C46.5059 39.3987 44.5623 44.5142 41.2971 48.5102C41.0328 47.3129 40.6907 46.1312 40.2864 44.9962C42.3855 41.7932 43.6139 37.9682 43.6139 33.8478C43.6139 32.1997 43.4117 30.6137 43.0541 29.0744C43.987 28.8101 44.9044 28.4991 45.8062 28.1881Z" fill="#FEFEFE"/>
<path d="M27.319 20.6628C26.9458 21.1759 26.6193 21.6891 26.3238 22.2333C25.2665 24.1613 24.6601 26.3225 24.5513 28.5615C23.6028 28.2195 22.6544 27.9396 21.7059 27.753C21.908 25.3274 22.6233 22.9796 23.7894 20.865C25.6553 17.4598 28.6561 14.6455 32.5277 13.0596L32.8076 13.7593C29.7134 14.6144 27.8165 17.0867 27.2101 18.486C27.1635 18.5949 27.1324 18.6882 27.1013 18.7815C27.0546 18.937 27.0235 19.0769 27.008 19.1857C27.008 19.279 27.008 19.3879 27.008 19.5278C27.0391 19.8232 27.1479 20.2275 27.319 20.6784V20.6628Z" fill="#FEFEFE"/>
<path d="M21.6437 12.4381C21.7214 11.5052 21.9702 10.5256 22.4678 9.49943C22.9031 8.62871 23.5095 7.72689 24.3336 6.85617C25.1888 5.95435 26.2927 4.95923 27.7543 4.02631C29.2003 3.10894 31.0195 2.25376 33.3363 1.61627L35.824 0.932129L35.1243 3.32663C34.9222 4.39948 35 5.76776 35.0932 7.21378C35.2176 9.25065 35.342 11.4119 34.8134 13.4488C34.3469 13.4488 33.9116 13.511 33.4917 13.5887C32.7143 13.7287 31.9991 13.993 31.3616 14.3039C32.4966 12.3448 32.3411 9.76376 32.2168 7.36928C32.1701 6.5763 32.1235 5.79886 32.1235 5.05253C31.0506 5.47234 30.1177 5.95435 29.3247 6.46746C28.0964 7.24489 27.1635 8.08451 26.4482 8.84639C25.8263 9.49943 25.3754 10.1525 25.0799 10.7744C24.7534 11.4274 24.5979 12.0649 24.5513 12.6713C24.4891 13.5576 24.6601 14.3506 24.94 15.0347C25.3443 15.9832 25.9196 16.6673 26.3394 17.0094L26.4171 17.0716C26.8058 17.1182 27.5211 17.0405 28.3451 16.7295C27.8165 17.367 27.4433 17.989 27.2257 18.4865C27.179 18.5954 27.1479 18.6887 27.1168 18.782C27.0702 18.9374 27.0391 19.0774 27.0235 19.1862C27.0235 19.2795 27.0235 19.3883 27.0235 19.5283C27.0235 19.6527 27.0702 19.7926 27.1013 19.9481C26.6348 19.9947 26.2461 19.9792 25.9351 19.9481C25.8263 19.9326 25.7485 19.917 25.6863 19.9015C25.6086 19.8859 25.5153 19.8548 25.4065 19.8082C25.3287 19.7771 25.2199 19.7304 25.0955 19.6682C25.0955 19.6682 24.9556 19.5905 24.8312 19.5127H24.8156C24.8156 19.5127 24.7068 19.435 24.6601 19.3884L24.5357 19.2951C23.8361 18.7198 22.872 17.6003 22.2656 16.1542C21.8147 15.0969 21.5504 13.8375 21.6592 12.4537L21.6437 12.4381Z" fill="#FEFEFE"/>
<path d="M33.2118 12.1736C34.3624 11.9559 35.653 11.9403 37.0368 12.2046C38.2496 12.4379 39.5401 12.8888 40.8928 13.6196C42.2922 14.3815 43.9093 15.4077 45.5574 16.9003C47.2056 18.393 48.8848 20.3677 50.4397 23.0265L51.6525 25.0945L49.2891 25.1877C47.7964 25.2966 46.0394 25.8874 44.1891 26.5094C40.0532 27.8932 35.5286 29.4014 31.0817 27.038H31.0661C29.5579 26.1984 28.3918 25.0789 27.5366 23.9438C26.3082 22.3423 25.6863 20.632 25.5774 19.668C25.5774 19.5591 25.5619 19.4658 25.5464 19.3726C25.5464 19.2326 25.5464 19.1238 25.5464 19.046C25.5464 18.9217 25.5775 18.7973 25.6086 18.6573C25.6396 18.5485 25.6707 18.4396 25.7018 18.3153C25.7174 18.222 25.7485 18.1598 25.7796 18.0976L25.8573 17.8954C26.3082 16.8537 27.3344 15.3455 28.9049 14.1171C30.0399 13.2309 31.4859 12.4845 33.1963 12.158L33.2118 12.1736ZM36.4926 15.05C35.4819 14.8635 34.5645 14.8635 33.7405 15.019C32.5277 15.2522 31.517 15.7808 30.6929 16.4183C29.5579 17.3046 28.8271 18.3464 28.5317 19.046C28.5317 19.0616 28.5317 19.046 28.485 19.1704L28.454 19.2482V19.3104H28.4384V19.3415V19.357C28.5161 19.9634 28.9515 21.0674 29.8222 22.2335C30.4597 23.0731 31.3304 23.9128 32.4499 24.5192C35.8084 26.2917 39.7111 24.9856 43.2718 23.7884C44.4846 23.3841 45.6507 22.9954 46.7858 22.7155C45.744 21.2229 44.6556 20.0256 43.5827 19.0616C42.1367 17.74 40.7218 16.8381 39.4935 16.1851C38.4051 15.5943 37.3944 15.2366 36.4615 15.0656L36.4926 15.05Z" fill="#FEFEFE"/>
<path d="M38.5294 51.5583C36.4615 53.3931 34.0514 54.8702 31.4237 55.8653C28.8738 56.8293 26.1217 57.3579 23.2607 57.3579C17.3367 57.3579 11.9258 55.1034 7.83649 51.4184C3.71611 47.6867 0.948451 42.4935 0.357603 36.6627L0.279861 35.932L0.839612 35.4344C2.90758 33.5997 5.31761 32.1226 7.94533 31.1274C10.4953 30.1634 13.2319 29.6348 16.1084 29.6348C22.0324 29.6348 27.4433 31.8893 31.5326 35.5743C35.653 39.306 38.4206 44.4992 39.0115 50.33L39.0892 51.0608L38.5294 51.5583ZM30.3975 53.1598C32.4655 52.3824 34.3624 51.2629 36.0417 49.8791C35.3731 45.0745 33.0252 40.8142 29.589 37.7045C26.0284 34.4859 21.286 32.5268 16.0928 32.5268C13.5739 32.5268 11.1639 32.9933 8.94044 33.8329C6.87247 34.6103 4.97554 35.7298 3.29629 37.1136C3.96488 41.9182 6.31272 46.1785 9.74897 49.2882C13.3096 52.5068 18.0519 54.4659 23.2452 54.4659C25.764 54.4659 28.1741 53.9994 30.3975 53.1598Z" fill="#FEFEFE"/>
<path d="M0.90184 37.5796C2.4567 36.74 4.13596 36.0869 5.89295 35.6516C7.6033 35.2162 9.37584 34.9985 11.2106 34.9985C16.6059 34.9985 21.5504 36.9577 25.3443 40.2229C29.2003 43.5192 31.8902 48.1527 32.7143 53.4081L29.8689 53.8435C29.1537 49.3033 26.8214 45.2762 23.4784 42.4152C20.1821 39.6009 15.9063 37.8906 11.2106 37.8906C9.60907 37.8906 8.06975 38.0927 6.59263 38.4503C5.06887 38.839 3.62285 39.3988 2.27012 40.1296L0.90184 37.5796Z" fill="#FEFEFE"/>
<path d="M1.92801 40.2856C2.48776 40.1768 3.06306 40.099 3.65391 40.0524C4.2603 39.9902 4.85115 39.9746 5.39536 39.9746C9.9822 39.9746 14.1959 41.5917 17.5077 44.2816C20.8662 47.0181 23.2918 50.8897 24.1781 55.3055L21.3482 55.8809C20.5863 52.1336 18.5339 48.8529 15.6885 46.5206C12.8898 44.2349 9.29806 42.8667 5.39536 42.8667C4.85115 42.8667 4.35359 42.8822 3.90268 42.9289C3.42068 42.9755 2.92312 43.0377 2.44112 43.131L1.92801 40.2856Z" fill="#FEFEFE"/>
<path d="M26.3238 18.3302C30.2265 17.4284 34.2536 17.3973 37.9697 18.0814C41.8258 18.7967 45.3553 20.2738 48.0607 22.3729L46.3038 24.6585C43.9559 22.8393 40.8617 21.5488 37.4566 20.9268C34.1292 20.3204 30.5064 20.3515 26.9768 21.1601L26.3393 18.3458L26.3238 18.3302Z" fill="#FEFEFE"/>
</svg>
