<svg width="83" height="134" viewBox="0 0 83 134" fill="none" xmlns="http://www.w3.org/2000/svg">
<path d="M65.6265 66.4838C65.439 64.0993 63.3505 62.13 60.9707 62.0933L45.2199 61.8507C44.305 61.8367 43.3777 61.0273 43.2355 60.119L39.7652 37.9489C39.6394 37.1458 38.8942 33.8714 34.826 33.8714L15.2391 34.7284C12.6588 34.8411 10.561 36.1018 10.561 39.64C10.561 39.64 10.4786 88.9166 10.3783 90.7022L9.69301 102.894C9.60134 104.522 8.97004 107.158 8.31442 108.649L0.386385 126.681C-0.136929 127.871 -0.128326 129.186 0.410118 130.289C0.948563 131.393 1.97769 132.206 3.23435 132.519L5.87377 133.178C6.26655 133.276 6.67772 133.325 7.09543 133.325C9.22606 133.325 11.2641 132.083 12.1672 130.233L19.7033 114.797C20.5358 113.092 21.5717 110.203 22.0131 108.356L26.2655 90.5559L36.5565 106.37C37.4049 107.674 38.302 110.176 38.4762 111.724L40.4656 129.429C40.7486 131.95 43.0329 134 45.5575 134L48.5675 133.99C49.8589 133.985 51.0331 133.467 51.8738 132.531C52.7142 131.595 53.1073 130.368 52.9798 129.077L50.9019 108.028C50.7103 106.086 50.0164 103.138 49.3222 101.316L40.101 77.114L40.044 72.0119L61.4753 71.2148C62.6717 71.1703 63.765 70.6555 64.5535 69.7654C65.342 68.8755 65.7244 67.7248 65.6301 66.5241L65.6265 66.4838Z" fill="white"/>
<path d="M21.5005 29.1926C23.1494 29.1926 24.7798 28.91 26.3465 28.3522C30.0035 27.0519 32.9372 24.3982 34.6074 20.8799C35.7884 18.3922 36.234 15.683 35.9382 13.0105L40.8053 12.4587C42.5013 12.2665 44.2228 10.9071 44.8096 9.29672L46.4398 4.82305C46.7878 3.86733 46.6961 2.90027 46.1879 2.16932C45.6925 1.45684 44.8577 1.04814 43.8977 1.04814C43.7865 1.04814 43.6713 1.05351 43.5533 1.06483L29.4802 2.40989C27.1603 0.874344 24.4013 0 21.499 0C19.8508 0 18.2209 0.282306 16.6536 0.839466C12.997 2.1407 10.0632 4.79473 8.39274 8.31297C6.72223 11.8312 6.51545 15.7921 7.81039 19.466C9.86063 25.2838 15.3622 29.1926 21.5005 29.1926Z" fill="white"/>
<path d="M82.989 52.0332L81.5888 31.8088C81.4224 29.4069 79.338 27.4531 76.9338 27.4531L50.0297 27.5002C48.8253 27.5023 47.7181 27.9826 46.9121 28.8525C46.1064 29.722 45.7082 30.8659 45.7922 32.0735L47.1924 52.2979C47.3589 54.6997 49.4432 56.6535 51.8394 56.6535L78.7515 56.6064C79.956 56.6043 81.0631 56.1244 81.8691 55.2545C82.6749 54.3846 83.0727 53.2405 82.989 52.0332Z" fill="white"/>
</svg>
