<svg width="111" height="80" viewBox="0 0 111 80" fill="none" xmlns="http://www.w3.org/2000/svg">
<path d="M108.201 27.6299L95.4601 14.9405C93.6261 13.1208 91.1648 12.1151 88.6069 12.1151H70.8469V9.57706C70.8469 4.30981 66.5036 0 61.1947 0H9.65219C4.29528 0 0 4.30981 0 9.57706V58.2766C0 63.5438 4.29528 67.8536 9.65219 67.8536H20.8979C20.9091 74.5635 26.3924 80 33.1573 80C39.9221 80 45.4054 74.5635 45.4166 67.8536H74.4727C74.4839 74.5635 79.9671 80 86.732 80C93.4969 80 98.9799 74.5635 98.9911 67.8536H103.761C107.767 67.8536 111 64.5974 111 60.6708V34.4295C111 31.8917 109.987 29.4495 108.201 27.6299ZM33.1573 72.8172C30.3884 72.8172 28.1356 70.5819 28.1356 67.8346C28.1356 65.0872 30.3884 62.852 33.1573 62.852C35.9262 62.852 38.1789 65.0872 38.1789 67.8346C38.1789 70.5819 35.9261 72.8172 33.1573 72.8172ZM86.732 72.8172C83.9631 72.8172 81.7103 70.5819 81.7103 67.8346C81.7103 65.0872 83.9631 62.852 86.732 62.852C89.5008 62.852 91.7537 65.0872 91.7537 67.8346C91.7537 70.5819 89.5008 72.8172 86.732 72.8172ZM101.348 40H76.397V21.6922H87.0983C88.0638 21.6922 88.9893 22.0746 89.6695 22.7545L100.296 33.3784C100.97 34.0517 101.348 34.9619 101.348 35.9104L101.348 40Z" fill="white"/>
</svg>
