<svg width="43" height="44" viewBox="0 0 43 44" fill="none" xmlns="http://www.w3.org/2000/svg">
<path d="M9.2067 0C6.73529 0 4.49198 1.51345 3.51845 3.8354L0.122876 11.929C0.0173226 12.1753 0 12.3656 0 12.5723V14.7442C0 16.9573 1.27874 18.8691 3.10786 19.7928V38.2713C3.10786 41.3723 5.59752 43.9172 8.63128 43.9172H26.0857C26.9331 43.9172 27.6201 43.215 27.6201 42.3487C27.6201 41.4825 26.9331 40.7802 26.0857 40.7802H8.63128C7.2446 40.7802 6.17676 39.6887 6.17676 38.2713V20.3197C7.47755 20.1564 8.64803 19.5484 9.51239 18.6195C10.5218 19.7033 11.9374 20.3901 13.5044 20.3901C15.0712 20.3901 16.4847 19.7034 17.4933 18.6195C18.5019 19.7034 19.9154 20.3901 21.4823 20.3901C23.0492 20.3901 24.4627 19.7034 25.4713 18.6195C26.4799 19.7034 27.8934 20.3901 29.4602 20.3901C31.0272 20.3901 32.4428 19.7033 33.4522 18.6195C34.4608 19.7034 35.8743 20.3901 37.4412 20.3901C40.4747 20.3901 42.9646 17.845 42.9646 14.7442V12.8817C43.0331 12.5613 43.0017 12.227 42.8747 11.9259L39.4522 3.82621C38.4725 1.50759 36.2287 0 33.7579 0H9.2067ZM3.0689 14.1162H7.97794V14.7442C7.97794 16.1619 6.91038 17.2532 5.52342 17.2532C4.13647 17.2532 3.0689 16.1619 3.0689 14.7442V14.1162ZM11.0468 14.1162H15.9589V14.7442C15.9589 16.1619 14.8913 17.2532 13.5044 17.2532C12.1174 17.2532 11.0468 16.1605 11.0468 14.7442V14.1162ZM19.0278 14.1162H23.9368V14.7442C23.9368 16.1619 22.8693 17.2532 21.4823 17.2532C20.0953 17.2532 19.0278 16.1619 19.0278 14.7442V14.1162ZM27.0057 14.1162H31.9178V14.7442C31.9178 16.1605 30.8472 17.2532 29.4602 17.2532C28.0733 17.2532 27.0057 16.1619 27.0057 14.7442V14.1162ZM34.9867 14.1162H39.8957V14.7442C39.8957 16.1619 38.8281 17.2532 37.4412 17.2532C36.0542 17.2532 34.9867 16.1619 34.9867 14.7442V14.1162Z" fill="#1D780E"/>
<path d="M34.693 22.7643C30.1244 22.7643 26.4183 26.6534 26.4183 31.3694C26.4183 38.8397 33.8238 43.7242 33.8238 43.7242C34.0796 43.9038 34.3826 44 34.693 44C35.0033 44 35.3063 43.9038 35.5621 43.7242C35.5621 43.7242 42.9646 38.8397 42.9646 31.3694C42.9646 26.6534 39.2615 22.7643 34.693 22.7643ZM34.63 29.0872C34.651 29.0869 34.672 29.0869 34.693 29.0872C34.9799 29.0872 35.264 29.1462 35.5291 29.261C35.7942 29.3757 36.0351 29.5438 36.238 29.7557C36.4409 29.9676 36.6018 30.2192 36.7116 30.4961C36.8213 30.773 36.8778 31.0697 36.8778 31.3694C36.8778 31.6691 36.8213 31.9658 36.7116 32.2427C36.6018 32.5196 36.4409 32.7712 36.238 32.9831C36.0351 33.1951 35.7942 33.3632 35.5291 33.4779C35.264 33.5926 34.9799 33.6516 34.693 33.6517C34.406 33.6516 34.1219 33.5926 33.8568 33.4779C33.5917 33.3632 33.3508 33.1951 33.1479 32.9831C32.9451 32.7712 32.7841 32.5196 32.6744 32.2427C32.5646 31.9658 32.5081 31.6691 32.5082 31.3694C32.5078 30.7754 32.7293 30.2047 33.1255 29.7785C33.5217 29.3523 34.0615 29.1043 34.63 29.0872Z" fill="#1D780E"/>
<path d="M10.7412 25.0955C10.3342 25.0956 9.94393 25.2608 9.65618 25.555C9.36842 25.8491 9.20674 26.248 9.2067 26.664V34.5064C9.20674 34.9223 9.36842 35.3212 9.65618 35.6154C9.94393 35.9095 10.3342 36.0748 10.7412 36.0748H19.8699C20.2769 36.0748 20.6671 35.9095 20.9549 35.6154C21.2427 35.3212 21.4043 34.9223 21.4044 34.5064V26.664C21.4043 26.248 21.2427 25.8491 20.9549 25.555C20.6671 25.2608 20.2769 25.0956 19.8699 25.0955H10.7412Z" fill="#1D780E"/>
</svg>
