<svg width="38" height="38" viewBox="0 0 38 38" fill="none" xmlns="http://www.w3.org/2000/svg">
<path fill-rule="evenodd" clip-rule="evenodd" d="M0 19C0 8.50584 8.50517 0 19 0C29.4942 0 38 8.50517 38 19C38 29.4942 29.4948 38 19 38C8.50584 38 0 29.4948 0 19ZM20.1177 9.50134C20.1177 9.19199 19.8699 8.94121 19.5536 8.94121H18.4464C18.1349 8.94121 17.8823 9.19318 17.8823 9.49711V19.5589C17.8823 19.9326 18.0691 20.2815 18.3801 20.4888L22.9453 23.5323C23.2017 23.7032 23.5469 23.6356 23.7223 23.3724L24.3365 22.4512C24.5093 22.1921 24.4429 21.8443 24.1814 21.67L20.1176 18.9608L20.1177 9.50134ZM19 5.58823C19.6173 5.58823 20.1177 5.08784 20.1177 4.47057C20.1177 3.85329 19.6173 3.35291 19 3.35291C18.3827 3.35291 17.8823 3.85329 17.8823 4.47057C17.8823 5.08784 18.3827 5.58823 19 5.58823ZM25.7059 7.38506C26.2404 7.69366 26.924 7.51049 27.2326 6.97597C27.5412 6.44145 27.3581 5.75789 26.8235 5.44921C26.289 5.14061 25.6055 5.32379 25.2968 5.85831C24.9882 6.39291 25.1714 7.07646 25.7059 7.38506ZM30.6149 12.2941C30.9235 12.8286 31.6071 13.0118 32.1417 12.7032C32.6762 12.3946 32.8594 11.7111 32.5508 11.1765C32.2422 10.6419 31.5586 10.4588 31.024 10.7674C30.4894 11.076 30.3063 11.7596 30.6149 12.2941ZM32.4118 19C32.4118 19.6173 32.9122 20.1177 33.5294 20.1177C34.1467 20.1177 34.6471 19.6173 34.6471 19C34.6471 18.3827 34.1467 17.8823 33.5294 17.8823C32.9122 17.8823 32.4118 18.3827 32.4118 19ZM30.6149 25.7059C30.3063 26.2404 30.4895 26.924 31.024 27.2326C31.5586 27.5412 32.2421 27.3581 32.5508 26.8235C32.8594 26.289 32.6762 25.6055 32.1417 25.2968C31.6071 24.9882 30.9235 25.1714 30.6149 25.7059ZM25.7059 30.6149C25.1714 30.9235 24.9882 31.6071 25.2968 32.1417C25.6054 32.6762 26.2889 32.8594 26.8235 32.5508C27.3581 32.2422 27.5412 31.5586 27.2326 31.024C26.924 30.4894 26.2404 30.3063 25.7059 30.6149ZM19 32.4118C18.3827 32.4118 17.8823 32.9122 17.8823 33.5294C17.8823 34.1467 18.3827 34.6471 19 34.6471C19.6173 34.6471 20.1177 34.1467 20.1177 33.5294C20.1177 32.9122 19.6173 32.4118 19 32.4118ZM12.2941 30.6149C11.7596 30.3063 11.076 30.4895 10.7674 31.024C10.4588 31.5586 10.6419 32.2421 11.1765 32.5508C11.711 32.8594 12.3945 32.6762 12.7032 32.1417C13.0118 31.6071 12.8287 30.9235 12.2941 30.6149ZM7.38506 25.7059C7.07646 25.1714 6.39291 24.9882 5.85831 25.2968C5.32379 25.6054 5.14061 26.2889 5.44921 26.8235C5.75782 27.3581 6.44137 27.5412 6.97597 27.2326C7.51057 26.924 7.69366 26.2404 7.38506 25.7059ZM5.58823 19C5.58823 18.3827 5.08784 17.8823 4.47057 17.8823C3.85329 17.8823 3.35291 18.3827 3.35291 19C3.35291 19.6173 3.85329 20.1177 4.47057 20.1177C5.08784 20.1177 5.58823 19.6173 5.58823 19ZM7.38506 12.2941C7.69366 11.7596 7.51049 11.076 6.97597 10.7674C6.44145 10.4588 5.75789 10.6419 5.44921 11.1765C5.14061 11.711 5.32379 12.3945 5.85831 12.7032C6.39291 13.0118 7.07646 12.8287 7.38506 12.2941ZM12.2941 7.38506C12.8286 7.07646 13.0118 6.39291 12.7032 5.85831C12.3946 5.32379 11.7111 5.14061 11.1765 5.44921C10.6419 5.75782 10.4588 6.44137 10.7674 6.97597C11.076 7.51057 11.7596 7.69366 12.2941 7.38506Z" fill="#1D780E"/>
</svg>
