<svg width="50" height="50" viewBox="0 0 50 50" fill="none" xmlns="http://www.w3.org/2000/svg">
<path fill-rule="evenodd" clip-rule="evenodd" d="M25 0C38.8071 0 50 11.1929 50 25C50 38.8071 38.8071 50 25 50C11.1929 50 0 38.8071 0 25C0 11.1929 11.1929 0 25 0ZM39.6777 36.566C40.035 36.2069 40.2355 35.721 40.2355 35.2145C40.2355 34.7081 40.035 34.2222 39.6777 33.8631L34.7841 28.9705C34.4249 28.6131 33.9388 28.4125 33.432 28.4125C32.9253 28.4125 32.4392 28.6131 32.08 28.9705L30.7502 30.3009C30.3086 30.7462 29.735 31.037 29.1148 31.1299C28.4946 31.2227 27.861 31.1128 27.3083 30.8164C23.8477 28.9835 21.0173 26.1534 19.184 22.6931C18.8875 22.1403 18.7774 21.5065 18.8702 20.8862C18.9629 20.2658 19.2535 19.6919 19.6986 19.25L21.031 17.9199C21.3882 17.5607 21.5887 17.0747 21.5887 16.5681C21.5887 16.0615 21.3882 15.5755 21.031 15.2163L16.1373 10.3242C15.7781 9.96678 15.292 9.76611 14.7852 9.76611C14.2785 9.76611 13.7923 9.96678 13.4331 10.3242C13.2309 10.5259 12.975 10.7695 12.7014 11.0273C12.0171 11.6741 11.1634 12.4791 10.8183 12.9852C9.00059 15.6452 9.87227 19.204 10.9194 21.7214C12.3027 25.0395 14.8521 28.655 18.1007 31.9013C21.3463 35.1472 24.9606 37.6969 28.2806 39.0802C30.7974 40.1288 34.3548 40.9983 37.0147 39.1811C37.5205 38.8356 38.3267 37.984 38.9722 37.2988C39.2311 37.0257 39.4749 36.7676 39.6777 36.566Z" fill="white"/>
</svg>
