<svg width="70" height="62" viewBox="0 0 70 62" fill="none" xmlns="http://www.w3.org/2000/svg">
<path d="M18.2279 49.3182C13.5582 49.3182 9.40476 46.4295 7.89681 42.129L7.79472 41.8049C7.43888 40.6664 7.29013 39.7082 7.29013 38.75V19.5356L0.214122 42.3573C-0.695901 45.7137 1.3779 49.1942 4.85757 50.1214L49.9591 61.7915C50.522 61.9324 51.0849 62 51.6391 62C54.5442 62 57.1984 60.1372 57.9422 57.3923L60.5702 49.3182H18.2279Z" fill="white"/>
<path d="M26.2489 19.7273C29.4661 19.7273 32.0824 17.1994 32.0824 14.0909C32.0824 10.9825 29.4661 8.45455 26.2489 8.45455C23.0318 8.45455 20.4155 10.9825 20.4155 14.0909C20.4155 17.1994 23.0318 19.7273 26.2489 19.7273Z" fill="white"/>
<path d="M62.7082 0H18.9571C14.9378 0 11.6652 3.162 11.6652 7.04545V38.0455C11.6652 41.9289 14.9378 45.0909 18.9571 45.0909H62.7082C66.7274 45.0909 70 41.9289 70 38.0455V7.04545C70 3.162 66.7274 0 62.7082 0ZM18.9571 5.63636H62.7082C63.5132 5.63636 64.1665 6.26764 64.1665 7.04545V27.0517L54.9525 16.6639C53.9754 15.5564 52.5608 14.9645 51.0412 14.9307C49.5303 14.9392 48.1128 15.5874 47.1444 16.709L36.3117 29.2725L32.7824 25.8709C30.7874 23.9433 27.541 23.9433 25.5489 25.8709L17.4987 33.6463V7.04545C17.4987 6.26764 18.1521 5.63636 18.9571 5.63636Z" fill="white"/>
</svg>
